<svg width="1080" height="1080" viewBox="0 0 1080 1080" fill="none" xmlns="http://www.w3.org/2000/svg">
<path fill-rule="evenodd" clip-rule="evenodd" d="M198.333 379.322C191.414 381.794 187.781 384.994 158.497 414.408L130.449 442.581C129.672 443.361 129.672 444.622 130.449 445.403L137.977 452.967C142.89 457.903 147.677 461.941 148.615 461.941C149.552 461.941 162.387 449.784 177.135 434.924C202.147 409.725 204.187 407.909 207.466 407.924C210.625 407.939 212.242 409.205 223.445 420.435L234.526 431.542C235.294 432.312 235.306 433.556 234.551 434.341L228.93 440.184C225.092 444.173 213.288 456.239 202.701 466.996C179.422 490.648 179.903 489.317 190.876 499.74C196.929 505.489 198.731 506.682 200.626 506.194C201.905 505.864 206.781 501.735 211.462 497.018C263.866 444.207 272.451 435.173 272.451 432.835C272.451 429.338 225.876 382.925 219.451 380.02C214.196 377.643 203.975 377.305 198.333 379.322ZM288.368 452.928C286.843 453.819 269.137 471.708 245.66 496.075C239.442 502.529 234.451 508.55 234.451 509.599C234.451 511.884 249.336 526.941 251.596 526.941C252.476 526.941 255.146 524.804 257.528 522.191C271.162 507.242 290.998 486.941 291.971 486.941C292.594 486.941 303.869 497.741 317.027 510.942C336.391 530.367 341.011 535.523 341.268 537.988C341.551 540.709 340.07 542.598 327.348 555.737C319.518 563.824 311.164 572.46 308.783 574.927L305.865 577.949C305.089 578.753 303.805 578.765 303.014 577.976L292.687 567.677C284.454 559.465 280.226 555.941 278.606 555.941C276.902 555.941 269.906 562.465 252.065 580.691C223.033 610.349 215.211 618.761 215.633 619.871C216.502 622.157 231.493 634.941 233.305 634.941C234.67 634.941 242.55 627.658 256.566 613.441C268.225 601.616 278.045 591.941 278.389 591.941C278.734 591.941 284.06 596.891 290.227 602.941C298.705 611.259 302.073 613.941 304.044 613.941C307.015 613.941 307.289 613.683 341.217 578.832C361.751 557.74 364.439 554.594 366.426 549.332C368.164 544.728 368.551 542.021 368.198 536.941C367.374 525.067 365.812 523.046 328.585 485.688C293.961 450.941 293.043 450.193 288.368 452.928ZM83.3033 489.691C47.5673 525.614 46.8893 526.515 47.0083 537.941C47.1223 548.912 49.2743 552.671 64.9613 569.306C89.9663 595.821 106.827 611.941 109.556 611.941C112.599 611.941 126.451 598.387 126.451 595.41C126.451 594.15 117.66 584.662 102.385 569.433C89.1483 556.237 77.6363 544.155 76.8033 542.583C75.9703 541.012 75.5363 538.762 75.8383 537.583C76.1403 536.405 85.9653 525.915 97.6693 514.272L117.509 494.538C118.302 493.75 119.586 493.764 120.361 494.569L133.351 508.073L146.399 521.635C147.152 522.418 147.143 523.657 146.38 524.429L135.101 535.828C119.234 551.864 119.154 552.223 129.226 562.218C133.218 566.179 136.854 568.941 138.076 568.941C139.456 568.941 147.404 561.584 161.801 546.978C179.504 529.02 183.451 524.511 183.451 522.246C183.451 519.946 178.155 514.18 152.183 488.209C127.726 463.752 120.367 456.941 118.399 456.941C116.425 456.941 108.862 463.998 83.3033 489.691ZM171.893 577.226C170.76 577.894 159.848 588.648 147.643 601.122C129.464 619.703 125.451 624.307 125.451 626.588C125.451 628.912 131.043 634.975 159.201 663.184C182.532 686.557 194.34 697.682 197.451 699.218C203.928 702.417 216.069 702.368 222.672 699.116C226.072 697.441 236.141 687.984 258.672 665.303C275.875 647.984 290.529 632.716 291.235 631.375C292.898 628.213 292.118 626.836 284.62 619.683C280.409 615.667 277.807 613.941 275.962 613.941C272.788 613.941 266.159 620.036 235.451 651.19C214.876 672.065 213.788 673.002 210.159 672.972C206.557 672.943 205.198 671.772 183.074 649.638L161.175 627.728C160.402 626.955 160.394 625.704 161.156 624.92L174.125 611.588C190.612 594.64 192.003 592.841 190.619 590.258C189.093 587.41 176.776 575.937 175.288 575.976C174.552 575.996 173.025 576.558 171.893 577.226Z" fill="black"/>
<path d="M967.216 586.364C965.007 586.364 963.216 584.573 963.216 582.364V497.273C963.216 495.064 965.007 493.273 967.216 493.273H999.943C1007 493.273 1013.02 494.621 1017.99 497.318C1022.96 499.985 1026.75 503.697 1029.35 508.455C1031.99 513.182 1033.31 518.636 1033.31 524.818C1033.31 531 1031.97 536.455 1029.31 541.182C1026.64 545.909 1022.78 549.591 1017.72 552.227C1012.69 554.864 1006.59 556.182 999.443 556.182H980.034C977.825 556.182 976.034 554.391 976.034 552.182V544.409C976.034 542.2 977.825 540.409 980.034 540.409H996.261C1000.05 540.409 1003.17 539.758 1005.63 538.455C1008.11 537.121 1009.96 535.288 1011.17 532.955C1012.41 530.591 1013.03 527.879 1013.03 524.818C1013.03 521.727 1012.41 519.03 1011.17 516.727C1009.96 514.394 1008.11 512.591 1005.63 511.318C1003.14 510.015 999.989 509.364 996.171 509.364H986.898C984.689 509.364 982.898 511.155 982.898 513.364V582.364C982.898 584.573 981.107 586.364 978.898 586.364H967.216Z" fill="black"/>
<path d="M948.365 521.427C948.874 523.767 946.998 525.864 944.603 525.864H932.668C930.675 525.864 929.034 524.378 928.445 522.474C928.062 521.233 927.569 520.075 926.966 519C925.845 516.97 924.405 515.242 922.648 513.818C920.89 512.394 918.86 511.303 916.557 510.545C914.284 509.788 911.814 509.409 909.148 509.409C904.33 509.409 900.133 510.606 896.557 513C892.981 515.364 890.208 518.818 888.239 523.364C886.269 527.879 885.284 533.364 885.284 539.818C885.284 546.455 886.269 552.03 888.239 556.545C890.239 561.061 893.027 564.47 896.602 566.773C900.178 569.076 904.314 570.227 909.011 570.227C911.648 570.227 914.087 569.879 916.33 569.182C918.602 568.485 920.617 567.47 922.375 566.136C924.133 564.773 925.587 563.121 926.739 561.182C927.38 560.129 927.915 558.996 928.342 557.782C928.986 555.954 930.605 554.552 932.543 554.561L944.612 554.616C947.003 554.627 948.869 556.73 948.282 559.048C947.596 561.763 946.581 564.414 945.239 567C943.208 570.939 940.466 574.47 937.011 577.591C933.587 580.682 929.496 583.136 924.739 584.955C920.011 586.742 914.663 587.636 908.693 587.636C900.39 587.636 892.966 585.758 886.421 582C879.905 578.242 874.754 572.803 870.966 565.682C867.208 558.561 865.33 549.939 865.33 539.818C865.33 529.667 867.239 521.03 871.057 513.909C874.875 506.788 880.057 501.364 886.602 497.636C893.148 493.879 900.511 492 908.693 492C914.087 492 919.087 492.758 923.693 494.273C928.33 495.788 932.436 498 936.011 500.909C939.587 503.788 942.496 507.318 944.739 511.5C946.368 514.497 947.576 517.806 948.365 521.427Z" fill="black"/>
<path d="M749.841 497.273C749.841 495.064 751.632 493.273 753.841 493.273H771.43C773.053 493.273 774.516 494.254 775.131 495.756L799.543 555.313C799.668 555.619 799.966 555.818 800.295 555.818V555.818C800.625 555.818 800.923 555.619 801.048 555.313L825.46 495.756C826.075 494.254 827.537 493.273 829.161 493.273H846.75C848.959 493.273 850.75 495.064 850.75 497.273V582.364C850.75 584.573 848.959 586.364 846.75 586.364H835.659C833.45 586.364 831.659 584.573 831.659 582.364V526.234C831.659 525.979 831.453 525.773 831.198 525.773V525.773C831.01 525.773 830.84 525.887 830.77 526.062L807.802 583.397C807.194 584.914 805.724 585.909 804.089 585.909H796.506C794.869 585.909 793.398 584.912 792.791 583.392L769.82 525.835C769.75 525.66 769.581 525.545 769.392 525.545V525.545C769.138 525.545 768.932 525.752 768.932 526.006V582.364C768.932 584.573 767.141 586.364 764.932 586.364H753.841C751.632 586.364 749.841 584.573 749.841 582.364V497.273Z" fill="black"/>
<path d="M675.466 586.364C673.257 586.364 671.466 584.573 671.466 582.364V497.273C671.466 495.064 673.257 493.273 675.466 493.273H730.193C732.402 493.273 734.193 495.064 734.193 497.273V505.5C734.193 507.709 732.402 509.5 730.193 509.5H695.148C692.939 509.5 691.148 511.291 691.148 513.5V527.682C691.148 529.891 692.939 531.682 695.148 531.682H726.966C729.175 531.682 730.966 533.473 730.966 535.682V543.909C730.966 546.118 729.175 547.909 726.966 547.909H695.148C692.939 547.909 691.148 549.7 691.148 551.909V566.136C691.148 568.346 692.939 570.136 695.148 570.136H730.375C732.584 570.136 734.375 571.927 734.375 574.136V582.364C734.375 584.573 732.584 586.364 730.375 586.364H675.466Z" fill="black"/>
<path d="M651.205 493.273C653.414 493.273 655.205 495.064 655.205 497.273V582.364C655.205 584.573 653.414 586.364 651.205 586.364H640.302C638.989 586.364 637.759 585.719 637.012 584.638L597.838 527.966C597.754 527.845 597.617 527.773 597.47 527.773V527.773C597.223 527.773 597.023 527.973 597.023 528.22V582.364C597.023 584.573 595.232 586.364 593.023 586.364H581.341C579.132 586.364 577.341 584.573 577.341 582.364V497.273C577.341 495.064 579.132 493.273 581.341 493.273H592.508C593.826 493.273 595.059 493.922 595.805 495.009L634.636 551.586C634.736 551.731 634.901 551.818 635.078 551.818V551.818C635.374 551.818 635.614 551.578 635.614 551.282V497.273C635.614 495.064 637.405 493.273 639.614 493.273H651.205Z" fill="black"/>
<path d="M482.502 499.238C480.998 496.572 482.924 493.273 485.986 493.273H498.774C500.255 493.273 501.615 494.092 502.309 495.401L522.196 532.962C522.327 533.209 522.584 533.364 522.864 533.364V533.364C523.143 533.364 523.4 533.209 523.531 532.962L543.419 495.401C544.112 494.092 545.472 493.273 546.954 493.273H559.741C562.803 493.273 564.73 496.572 563.225 499.238L533.153 552.54C532.814 553.139 532.636 553.816 532.636 554.505V582.364C532.636 584.573 530.845 586.364 528.636 586.364H517.091C514.882 586.364 513.091 584.573 513.091 582.364V554.505C513.091 553.816 512.913 553.139 512.575 552.54L482.502 499.238Z" fill="black"/>
<path d="M430.091 586.364H401.091C398.882 586.364 397.091 584.573 397.091 582.364V497.273C397.091 495.064 398.882 493.273 401.091 493.273H430.364C439.727 493.273 447.788 495.136 454.545 498.864C461.303 502.561 466.5 507.879 470.136 514.818C473.803 521.758 475.636 530.061 475.636 539.727C475.636 549.424 473.803 557.758 470.136 564.727C466.5 571.697 461.273 577.045 454.455 580.773C447.667 584.5 439.545 586.364 430.091 586.364ZM416.773 565.5C416.773 567.709 418.564 569.5 420.773 569.5H429.273C435.091 569.5 439.985 568.47 443.955 566.409C447.955 564.318 450.955 561.091 452.955 556.727C454.985 552.333 456 546.667 456 539.727C456 532.848 454.985 527.227 452.955 522.864C450.955 518.5 447.97 515.288 444 513.227C440.03 511.167 435.136 510.136 429.318 510.136H420.773C418.564 510.136 416.773 511.927 416.773 514.136V565.5Z" fill="black"/>
</svg>
