<svg width="987" height="324" viewBox="0 0 987 324" fill="none" xmlns="http://www.w3.org/2000/svg">
<path fill-rule="evenodd" clip-rule="evenodd" d="M151.333 1.32159C144.414 3.79359 140.781 6.99359 111.497 36.4076L83.4489 64.5807C82.6721 65.3609 82.672 66.6223 83.4487 67.4026L90.9773 74.9666C95.8903 79.9026 100.677 83.9406 101.615 83.9406C102.552 83.9406 115.387 71.7836 130.135 56.9236C155.147 31.7246 157.187 29.9086 160.466 29.9236C163.625 29.9386 165.242 31.2046 176.445 42.4346L187.526 53.5415C188.294 54.3122 188.306 55.5561 187.551 56.3406L181.93 62.1836C178.092 66.1726 166.288 78.2386 155.701 88.9956C132.422 112.648 132.903 111.317 143.876 121.74C149.929 127.489 151.731 128.682 153.626 128.194C154.905 127.864 159.781 123.735 164.462 119.018C216.866 66.2066 225.451 57.1726 225.451 54.8346C225.451 51.3376 178.876 4.92458 172.451 2.01958C167.196 -0.357416 156.975 -0.695414 151.333 1.32159ZM241.368 74.9276C239.843 75.8186 222.137 93.7076 198.66 118.075C192.442 124.529 187.451 130.55 187.451 131.599C187.451 133.884 202.336 148.941 204.596 148.941C205.476 148.941 208.146 146.804 210.528 144.191C224.162 129.242 243.998 108.941 244.971 108.941C245.594 108.941 256.869 119.741 270.027 132.942C289.391 152.367 294.011 157.523 294.268 159.988C294.551 162.709 293.07 164.598 280.348 177.737C272.518 185.824 264.164 194.46 261.783 196.927L258.865 199.949C258.089 200.753 256.805 200.765 256.014 199.976L245.687 189.677C237.454 181.465 233.226 177.941 231.606 177.941C229.902 177.941 222.906 184.465 205.065 202.691C176.033 232.349 168.211 240.761 168.633 241.871C169.502 244.157 184.493 256.941 186.305 256.941C187.67 256.941 195.55 249.658 209.566 235.441C221.225 223.616 231.045 213.941 231.389 213.941C231.734 213.941 237.06 218.891 243.227 224.941C251.705 233.259 255.073 235.941 257.044 235.941C260.015 235.941 260.289 235.683 294.217 200.832C314.751 179.74 317.439 176.594 319.426 171.332C321.164 166.728 321.551 164.021 321.198 158.941C320.374 147.067 318.812 145.046 281.585 107.688C246.961 72.9406 246.043 72.1926 241.368 74.9276ZM36.3033 111.691C0.567268 147.614 -0.110738 148.515 0.00826173 159.941C0.122262 170.912 2.27427 174.671 17.9613 191.306C42.9663 217.821 59.8273 233.941 62.5563 233.941C65.5993 233.941 79.4513 220.387 79.4513 217.41C79.4513 216.15 70.6603 206.662 55.3853 191.433C42.1483 178.237 30.6363 166.155 29.8033 164.583C28.9703 163.012 28.5363 160.762 28.8383 159.583C29.1403 158.405 38.9653 147.915 50.6693 136.272L70.5094 116.538C71.3018 115.75 72.5863 115.764 73.3612 116.569L86.3513 130.073L99.3994 143.635C100.152 144.418 100.143 145.657 99.3798 146.429L88.1013 157.828C72.2343 173.864 72.1543 174.223 82.2263 184.218C86.2183 188.179 89.8543 190.941 91.0763 190.941C92.4563 190.941 100.404 183.584 114.801 168.978C132.504 151.02 136.451 146.511 136.451 144.246C136.451 141.946 131.155 136.18 105.183 110.209C80.7263 85.7516 73.3673 78.9406 71.3993 78.9406C69.4253 78.9406 61.8623 85.9976 36.3033 111.691ZM124.893 199.226C123.76 199.894 112.848 210.648 100.643 223.122C82.4643 241.703 78.4513 246.307 78.4513 248.588C78.4513 250.912 84.0433 256.975 112.201 285.184C135.532 308.557 147.34 319.682 150.451 321.218C156.928 324.417 169.069 324.368 175.672 321.116C179.072 319.441 189.141 309.984 211.672 287.303C228.875 269.984 243.529 254.716 244.235 253.375C245.898 250.213 245.118 248.836 237.62 241.683C233.409 237.667 230.807 235.941 228.962 235.941C225.788 235.941 219.159 242.036 188.451 273.19C167.876 294.065 166.788 295.002 163.159 294.972C159.557 294.943 158.198 293.772 136.074 271.638L114.175 249.728C113.402 248.955 113.394 247.704 114.156 246.92L127.125 233.588C143.612 216.64 145.003 214.841 143.619 212.258C142.093 209.41 129.776 197.937 128.288 197.976C127.552 197.996 126.025 198.558 124.893 199.226Z" fill="black"/>
<path d="M920.216 208.364C918.007 208.364 916.216 206.573 916.216 204.364V119.273C916.216 117.064 918.007 115.273 920.216 115.273H952.943C960.004 115.273 966.019 116.621 970.989 119.318C975.958 121.985 979.746 125.697 982.352 130.455C984.989 135.182 986.307 140.636 986.307 146.818C986.307 153 984.974 158.455 982.307 163.182C979.64 167.909 975.777 171.591 970.716 174.227C965.686 176.864 959.595 178.182 952.443 178.182H933.034C930.825 178.182 929.034 176.391 929.034 174.182V166.409C929.034 164.2 930.825 162.409 933.034 162.409H949.261C953.049 162.409 956.17 161.758 958.625 160.455C961.11 159.121 962.958 157.288 964.171 154.955C965.413 152.591 966.034 149.879 966.034 146.818C966.034 143.727 965.413 141.03 964.171 138.727C962.958 136.394 961.11 134.591 958.625 133.318C956.14 132.015 952.989 131.364 949.171 131.364H939.898C937.689 131.364 935.898 133.155 935.898 135.364V204.364C935.898 206.573 934.107 208.364 931.898 208.364H920.216Z" fill="black"/>
<path d="M901.365 143.427C901.874 145.767 899.998 147.864 897.603 147.864H885.668C883.675 147.864 882.034 146.378 881.445 144.474C881.062 143.233 880.569 142.075 879.966 141C878.845 138.97 877.405 137.242 875.648 135.818C873.89 134.394 871.86 133.303 869.557 132.545C867.284 131.788 864.814 131.409 862.148 131.409C857.33 131.409 853.133 132.606 849.557 135C845.981 137.364 843.208 140.818 841.239 145.364C839.269 149.879 838.284 155.364 838.284 161.818C838.284 168.455 839.269 174.03 841.239 178.545C843.239 183.061 846.027 186.47 849.602 188.773C853.178 191.076 857.314 192.227 862.011 192.227C864.648 192.227 867.087 191.879 869.33 191.182C871.602 190.485 873.617 189.47 875.375 188.136C877.133 186.773 878.587 185.121 879.739 183.182C880.38 182.129 880.915 180.996 881.342 179.782C881.986 177.954 883.605 176.552 885.543 176.561L897.612 176.616C900.003 176.627 901.869 178.73 901.282 181.048C900.596 183.763 899.581 186.414 898.239 189C896.208 192.939 893.466 196.47 890.011 199.591C886.587 202.682 882.496 205.136 877.739 206.955C873.011 208.742 867.663 209.636 861.693 209.636C853.39 209.636 845.966 207.758 839.421 204C832.905 200.242 827.754 194.803 823.966 187.682C820.208 180.561 818.33 171.939 818.33 161.818C818.33 151.667 820.239 143.03 824.057 135.909C827.875 128.788 833.057 123.364 839.602 119.636C846.148 115.879 853.511 114 861.693 114C867.087 114 872.087 114.758 876.693 116.273C881.33 117.788 885.436 120 889.011 122.909C892.587 125.788 895.496 129.318 897.739 133.5C899.368 136.497 900.576 139.806 901.365 143.427Z" fill="black"/>
<path d="M702.841 119.273C702.841 117.064 704.632 115.273 706.841 115.273H724.43C726.053 115.273 727.516 116.254 728.131 117.756L752.543 177.313C752.668 177.619 752.966 177.818 753.295 177.818C753.625 177.818 753.923 177.619 754.048 177.313L778.46 117.756C779.075 116.254 780.537 115.273 782.161 115.273H799.75C801.959 115.273 803.75 117.064 803.75 119.273V204.364C803.75 206.573 801.959 208.364 799.75 208.364H788.659C786.45 208.364 784.659 206.573 784.659 204.364V148.234C784.659 147.979 784.453 147.773 784.198 147.773C784.01 147.773 783.84 147.887 783.77 148.062L760.802 205.397C760.194 206.914 758.724 207.909 757.089 207.909H749.506C747.869 207.909 746.398 206.912 745.791 205.392L722.82 147.835C722.75 147.66 722.581 147.545 722.392 147.545C722.138 147.545 721.932 147.752 721.932 148.006V204.364C721.932 206.573 720.141 208.364 717.932 208.364H706.841C704.632 208.364 702.841 206.573 702.841 204.364V119.273Z" fill="black"/>
<path d="M628.466 208.364C626.257 208.364 624.466 206.573 624.466 204.364V119.273C624.466 117.064 626.257 115.273 628.466 115.273H683.193C685.402 115.273 687.193 117.064 687.193 119.273V127.5C687.193 129.709 685.402 131.5 683.193 131.5H648.148C645.939 131.5 644.148 133.291 644.148 135.5V149.682C644.148 151.891 645.939 153.682 648.148 153.682H679.966C682.175 153.682 683.966 155.473 683.966 157.682V165.909C683.966 168.118 682.175 169.909 679.966 169.909H648.148C645.939 169.909 644.148 171.7 644.148 173.909V188.136C644.148 190.346 645.939 192.136 648.148 192.136H683.375C685.584 192.136 687.375 193.927 687.375 196.136V204.364C687.375 206.573 685.584 208.364 683.375 208.364H628.466Z" fill="black"/>
<path d="M604.205 115.273C606.414 115.273 608.205 117.064 608.205 119.273V204.364C608.205 206.573 606.414 208.364 604.205 208.364H593.302C591.989 208.364 590.759 207.719 590.012 206.638L550.838 149.966C550.754 149.845 550.617 149.773 550.47 149.773C550.223 149.773 550.023 149.973 550.023 150.22V204.364C550.023 206.573 548.232 208.364 546.023 208.364H534.341C532.132 208.364 530.341 206.573 530.341 204.364V119.273C530.341 117.064 532.132 115.273 534.341 115.273H545.508C546.826 115.273 548.059 115.922 548.805 117.009L587.636 173.586C587.736 173.731 587.901 173.818 588.078 173.818C588.374 173.818 588.614 173.578 588.614 173.282V119.273C588.614 117.064 590.405 115.273 592.614 115.273H604.205Z" fill="black"/>
<path d="M435.502 121.238C433.998 118.572 435.924 115.273 438.986 115.273H451.774C453.255 115.273 454.615 116.092 455.309 117.401L475.196 154.962C475.327 155.209 475.584 155.364 475.864 155.364C476.143 155.364 476.4 155.209 476.531 154.962L496.419 117.401C497.112 116.092 498.472 115.273 499.954 115.273H512.741C515.803 115.273 517.73 118.572 516.225 121.238L486.153 174.54C485.814 175.139 485.636 175.816 485.636 176.505V204.364C485.636 206.573 483.846 208.364 481.636 208.364H470.091C467.882 208.364 466.091 206.573 466.091 204.364V176.505C466.091 175.816 465.913 175.139 465.575 174.54L435.502 121.238Z" fill="black"/>
<path d="M383.091 208.364H354.091C351.882 208.364 350.091 206.573 350.091 204.364V119.273C350.091 117.064 351.882 115.273 354.091 115.273H383.364C392.727 115.273 400.788 117.136 407.545 120.864C414.303 124.561 419.5 129.879 423.136 136.818C426.803 143.758 428.636 152.061 428.636 161.727C428.636 171.424 426.803 179.758 423.136 186.727C419.5 193.697 414.273 199.045 407.455 202.773C400.667 206.5 392.545 208.364 383.091 208.364ZM369.773 187.5C369.773 189.709 371.564 191.5 373.773 191.5H382.273C388.091 191.5 392.985 190.47 396.955 188.409C400.955 186.318 403.955 183.091 405.955 178.727C407.985 174.333 409 168.667 409 161.727C409 154.848 407.985 149.227 405.955 144.864C403.955 140.5 400.97 137.288 397 135.227C393.03 133.167 388.136 132.136 382.318 132.136H373.773C371.564 132.136 369.773 133.927 369.773 136.136V187.5Z" fill="black"/>
</svg>
