<svg width="322" height="324" viewBox="0 0 322 324" fill="none" xmlns="http://www.w3.org/2000/svg">
<path fill-rule="evenodd" clip-rule="evenodd" d="M151.333 1.32159C144.414 3.79359 140.781 6.99359 111.497 36.4076L82.0443 65.9916L90.9773 74.9666C95.8903 79.9026 100.677 83.9406 101.615 83.9406C102.552 83.9406 115.387 71.7836 130.135 56.9236C155.147 31.7246 157.187 29.9086 160.466 29.9236C163.625 29.9386 165.242 31.2046 176.445 42.4346L188.909 54.9286L181.93 62.1836C178.092 66.1726 166.288 78.2386 155.701 88.9956C132.422 112.648 132.903 111.317 143.876 121.74C149.929 127.489 151.731 128.682 153.626 128.194C154.905 127.864 159.781 123.735 164.462 119.018C216.866 66.2066 225.451 57.1726 225.451 54.8346C225.451 51.3376 178.876 4.92458 172.451 2.01958C167.196 -0.357416 156.975 -0.695414 151.333 1.32159ZM241.368 74.9276C239.843 75.8186 222.137 93.7076 198.66 118.075C192.442 124.529 187.451 130.55 187.451 131.599C187.451 133.884 202.336 148.941 204.596 148.941C205.476 148.941 208.146 146.804 210.528 144.191C224.162 129.242 243.998 108.941 244.971 108.941C245.594 108.941 256.869 119.741 270.027 132.942C289.391 152.367 294.011 157.523 294.268 159.988C294.551 162.709 293.07 164.598 280.348 177.737C272.518 185.824 264.164 194.46 261.783 196.927L257.453 201.412L245.687 189.677C237.454 181.465 233.226 177.941 231.606 177.941C229.902 177.941 222.906 184.465 205.065 202.691C176.033 232.349 168.211 240.761 168.633 241.871C169.502 244.157 184.493 256.941 186.305 256.941C187.67 256.941 195.55 249.658 209.566 235.441C221.225 223.616 231.045 213.941 231.389 213.941C231.734 213.941 237.06 218.891 243.227 224.941C251.705 233.259 255.073 235.941 257.044 235.941C260.015 235.941 260.289 235.683 294.217 200.832C314.751 179.74 317.439 176.594 319.426 171.332C321.164 166.728 321.551 164.021 321.198 158.941C320.374 147.067 318.812 145.046 281.585 107.688C246.961 72.9406 246.043 72.1926 241.368 74.9276ZM36.3033 111.691C0.567268 147.614 -0.110738 148.515 0.00826173 159.941C0.122262 170.912 2.27427 174.671 17.9613 191.306C42.9663 217.821 59.8273 233.941 62.5563 233.941C65.5993 233.941 79.4513 220.387 79.4513 217.41C79.4513 216.15 70.6603 206.662 55.3853 191.433C42.1483 178.237 30.6363 166.155 29.8033 164.583C28.9703 163.012 28.5363 160.762 28.8383 159.583C29.1403 158.405 38.9653 147.915 50.6693 136.272L71.9513 115.104L86.3513 130.073L100.752 145.042L88.1013 157.828C72.2343 173.864 72.1543 174.223 82.2263 184.218C86.2183 188.179 89.8543 190.941 91.0763 190.941C92.4563 190.941 100.404 183.584 114.801 168.978C132.504 151.02 136.451 146.511 136.451 144.246C136.451 141.946 131.155 136.18 105.183 110.209C80.7263 85.7516 73.3673 78.9406 71.3993 78.9406C69.4253 78.9406 61.8623 85.9976 36.3033 111.691ZM124.893 199.226C123.76 199.894 112.848 210.648 100.643 223.122C82.4643 241.703 78.4513 246.307 78.4513 248.588C78.4513 250.912 84.0433 256.975 112.201 285.184C135.532 308.557 147.34 319.682 150.451 321.218C156.928 324.417 169.069 324.368 175.672 321.116C179.072 319.441 189.141 309.984 211.672 287.303C228.875 269.984 243.529 254.716 244.235 253.375C245.898 250.213 245.118 248.836 237.62 241.683C233.409 237.667 230.807 235.941 228.962 235.941C225.788 235.941 219.159 242.036 188.451 273.19C167.876 294.065 166.788 295.002 163.159 294.972C159.557 294.943 158.198 293.772 136.074 271.638L112.781 248.334L127.125 233.588C143.612 216.64 145.003 214.841 143.619 212.258C142.093 209.41 129.776 197.937 128.288 197.976C127.552 197.996 126.025 198.558 124.893 199.226Z" fill="black"/>
</svg>
